<svg width="24" height="24" viewBox="0 0 24 24" fill="none" xmlns="http://www.w3.org/2000/svg">
<rect width="24" height="24" fill="white"/>
<path d="M15 9C15 8.20435 14.6839 7.44129 14.1213 6.87868C13.5587 6.31607 12.7956 6 12 6C11.2044 6 10.4413 6.31607 9.87868 6.87868C9.31607 7.44129 9 8.20435 9 9H6V16.5C6 16.8978 6.15804 17.2794 6.43934 17.5607C6.72064 17.842 7.10218 18 7.5 18H13V17H7.5C7.36739 17 7.24021 16.9473 7.14645 16.8536C7.05268 16.7598 7 16.6326 7 16.5V10H9V11H10V10H14V11H15V10H17V13H18V9H15ZM10 9C10 8.46957 10.2107 7.96086 10.5858 7.58579C10.9609 7.21071 11.4696 7 12 7C12.5304 7 13.0391 7.21071 13.4142 7.58579C13.7893 7.96086 14 8.46957 14 9H10Z" fill="#1D1D1D"/>
<path d="M16.5 14H15.5V15.5H14V16.5H15.5V18H16.5V16.5H18V15.5H16.5V14Z" fill="#1D1D1D"/>
</svg>
