<svg width="24" height="24" viewBox="0 0 24 24" fill="none" xmlns="http://www.w3.org/2000/svg">
<rect width="24" height="24" fill="white"/>
<path d="M14.7489 6.375C14.1861 6.3838 13.6356 6.54173 13.1529 6.83285C12.6703 7.12397 12.2726 7.53797 12 8.03303C11.7274 7.53797 11.3297 7.12397 10.8471 6.83285C10.3644 6.54173 9.81391 6.3838 9.25111 6.375C8.35394 6.41419 7.50866 6.80873 6.89995 7.47243C6.29123 8.13614 5.96856 9.01505 6.00242 9.91716C6.00242 13.3212 11.4782 17.2527 11.7111 17.4195L12 17.625L12.2889 17.4195C12.5218 17.2537 17.9976 13.3212 17.9976 9.91716C18.0314 9.01505 17.7088 8.13614 17.1001 7.47243C16.4913 6.80873 15.6461 6.41419 14.7489 6.375ZM12 16.388C10.3742 15.1671 7.00202 12.1676 7.00202 9.91716C6.96785 9.28144 7.18513 8.65792 7.60645 8.18261C8.02778 7.70729 8.61898 7.41873 9.25111 7.37987C9.88324 7.41873 10.4744 7.70729 10.8958 8.18261C11.3171 8.65792 11.5344 9.28144 11.5002 9.91716H12.4998C12.4656 9.28144 12.6829 8.65792 13.1042 8.18261C13.5256 7.70729 14.1168 7.41873 14.7489 7.37987C15.381 7.41873 15.9722 7.70729 16.3935 8.18261C16.8149 8.65792 17.0322 9.28144 16.998 9.91716C16.998 12.1686 13.6258 15.1671 12 16.388Z" fill="#1D1D1D"/>
</svg>
