<svg width="14" height="14" viewBox="0 0 14 14" fill="none" xmlns="http://www.w3.org/2000/svg">
<g clip-path="url(#clip0_1_1774)">
<path d="M12.25 14H11.0833V11.0583C11.0829 10.6009 10.901 10.1625 10.5776 9.83908C10.2542 9.5157 9.81575 9.33382 9.35842 9.33335H4.64158C4.18425 9.33382 3.74578 9.5157 3.42239 9.83908C3.09901 10.1625 2.91713 10.6009 2.91667 11.0583V14H1.75V11.0583C1.75093 10.2917 2.05587 9.55671 2.59795 9.01464C3.14002 8.47256 3.87497 8.16761 4.64158 8.16669H9.35842C10.125 8.16761 10.86 8.47256 11.4021 9.01464C11.9441 9.55671 12.2491 10.2917 12.25 11.0583V14Z" fill="white"/>
<path d="M7 7C6.30777 7 5.63108 6.79473 5.05551 6.41015C4.47993 6.02556 4.03133 5.47894 3.76642 4.83939C3.50152 4.19985 3.4322 3.49612 3.56725 2.81719C3.7023 2.13825 4.03564 1.51461 4.52513 1.02513C5.01461 0.535644 5.63825 0.202301 6.31719 0.0672531C6.99612 -0.0677952 7.69985 0.0015165 8.33939 0.266423C8.97893 0.53133 9.52556 0.979934 9.91014 1.55551C10.2947 2.13108 10.5 2.80777 10.5 3.5C10.4991 4.42798 10.13 5.31768 9.47385 5.97385C8.81768 6.63003 7.92797 6.99908 7 7ZM7 1.16667C6.53851 1.16667 6.08739 1.30352 5.70367 1.55991C5.31996 1.8163 5.02089 2.18071 4.84428 2.60707C4.66768 3.03343 4.62147 3.50259 4.7115 3.95521C4.80153 4.40784 5.02376 4.8236 5.35009 5.14992C5.67641 5.47624 6.09217 5.69847 6.54479 5.7885C6.99741 5.87853 7.46657 5.83233 7.89293 5.65572C8.31929 5.47912 8.68371 5.18005 8.9401 4.79633C9.19649 4.41262 9.33333 3.96149 9.33333 3.5C9.33333 2.88116 9.0875 2.28767 8.64992 1.85009C8.21233 1.4125 7.61884 1.16667 7 1.16667Z" fill="white"/>
</g>
<defs>
<clipPath id="clip0_1_1774">
<rect width="14" height="14" fill="white"/>
</clipPath>
</defs>
</svg>
