<svg width="25" height="14" viewBox="0 0 25 14" fill="none" xmlns="http://www.w3.org/2000/svg">
<g clip-path="url(#clip0_1_1773)">
<path d="M10.5 3.5C10.5 2.57174 10.1313 1.6815 9.47487 1.02513C8.8185 0.368749 7.92826 0 7 0C6.07174 0 5.1815 0.368749 4.52513 1.02513C3.86875 1.6815 3.5 2.57174 3.5 3.5H0V12.25C0 12.7141 0.184374 13.1592 0.512563 13.4874C0.840752 13.8156 1.28587 14 1.75 14H12.25C12.7141 14 13.1592 13.8156 13.4874 13.4874C13.8156 13.1592 14 12.7141 14 12.25V3.5H10.5ZM7 1.16667C7.61884 1.16667 8.21233 1.4125 8.64992 1.85008C9.0875 2.28767 9.33333 2.88116 9.33333 3.5H4.66667C4.66667 2.88116 4.9125 2.28767 5.35008 1.85008C5.78767 1.4125 6.38116 1.16667 7 1.16667ZM12.8333 12.25C12.8333 12.4047 12.7719 12.5531 12.6625 12.6625C12.5531 12.7719 12.4047 12.8333 12.25 12.8333H1.75C1.59529 12.8333 1.44692 12.7719 1.33752 12.6625C1.22812 12.5531 1.16667 12.4047 1.16667 12.25V4.66667H3.5V5.83333H4.66667V4.66667H9.33333V5.83333H10.5V4.66667H12.8333V12.25Z" fill="white"/>
</g>
<path d="M22.21 6.9209C22.21 7.50033 22.166 8.0179 22.0781 8.47363C21.9902 8.92936 21.8519 9.3151 21.6631 9.63086C21.4743 9.94661 21.2301 10.1875 20.9307 10.3535C20.6312 10.5163 20.2715 10.5977 19.8516 10.5977C19.321 10.5977 18.8815 10.4528 18.5332 10.1631C18.1882 9.87337 17.9294 9.45508 17.7568 8.9082C17.5876 8.35807 17.5029 7.69564 17.5029 6.9209C17.5029 6.15918 17.5794 5.50488 17.7324 4.95801C17.8887 4.40788 18.1393 3.98633 18.4844 3.69336C18.8294 3.39714 19.2852 3.24902 19.8516 3.24902C20.3887 3.24902 20.8314 3.39551 21.1797 3.68848C21.528 3.97819 21.7868 4.39811 21.9561 4.94824C22.1253 5.49512 22.21 6.15267 22.21 6.9209ZM18.3184 6.9209C18.3184 7.58496 18.3688 8.13835 18.4697 8.58105C18.5706 9.02376 18.7334 9.35579 18.958 9.57715C19.1859 9.79525 19.4837 9.9043 19.8516 9.9043C20.2194 9.9043 20.5156 9.79525 20.7402 9.57715C20.9681 9.35905 21.1325 9.02865 21.2334 8.58594C21.3376 8.14323 21.3896 7.58822 21.3896 6.9209C21.3896 6.2666 21.3392 5.71973 21.2383 5.28027C21.1374 4.83757 20.9746 4.50553 20.75 4.28418C20.5254 4.05957 20.2259 3.94727 19.8516 3.94727C19.4772 3.94727 19.1777 4.05957 18.9531 4.28418C18.7285 4.50553 18.5658 4.83757 18.4648 5.28027C18.3672 5.71973 18.3184 6.2666 18.3184 6.9209Z" fill="white"/>
<defs>
<clipPath id="clip0_1_1773">
<rect width="14" height="14" fill="white"/>
</clipPath>
</defs>
</svg>
