<svg width="25" height="15" viewBox="0 0 25 15" fill="none" xmlns="http://www.w3.org/2000/svg">
<g clip-path="url(#clip0_2024_93)">
<path d="M10.5 4.00024C10.5 3.07199 10.1313 2.18175 9.47487 1.52537C8.8185 0.868993 7.92826 0.500244 7 0.500244C6.07174 0.500244 5.1815 0.868993 4.52513 1.52537C3.86875 2.18175 3.5 3.07199 3.5 4.00024H0V12.7502C0 13.2144 0.184374 13.6595 0.512563 13.9877C0.840752 14.3159 1.28587 14.5002 1.75 14.5002H12.25C12.7141 14.5002 13.1592 14.3159 13.4874 13.9877C13.8156 13.6595 14 13.2144 14 12.7502V4.00024H10.5ZM7 1.66691C7.61884 1.66691 8.21233 1.91274 8.64992 2.35033C9.0875 2.78791 9.33333 3.38141 9.33333 4.00024H4.66667C4.66667 3.38141 4.9125 2.78791 5.35008 2.35033C5.78767 1.91274 6.38116 1.66691 7 1.66691ZM12.8333 12.7502C12.8333 12.905 12.7719 13.0533 12.6625 13.1627C12.5531 13.2721 12.4047 13.3336 12.25 13.3336H1.75C1.59529 13.3336 1.44692 13.2721 1.33752 13.1627C1.22812 13.0533 1.16667 12.905 1.16667 12.7502V5.16691H3.5V6.33358H4.66667V5.16691H9.33333V6.33358H10.5V5.16691H12.8333V12.7502Z" fill="white"/>
</g>
<path d="M22.21 7.42114C22.21 8.00057 22.166 8.51815 22.0781 8.97388C21.9902 9.42961 21.8519 9.81535 21.6631 10.1311C21.4743 10.4469 21.2301 10.6877 20.9307 10.8538C20.6312 11.0165 20.2715 11.0979 19.8516 11.0979C19.321 11.0979 18.8815 10.953 18.5332 10.6633C18.1882 10.3736 17.9294 9.95532 17.7568 9.40845C17.5876 8.85832 17.5029 8.19588 17.5029 7.42114C17.5029 6.65942 17.5794 6.00513 17.7324 5.45825C17.8887 4.90812 18.1393 4.48657 18.4844 4.1936C18.8294 3.89738 19.2852 3.74927 19.8516 3.74927C20.3887 3.74927 20.8314 3.89575 21.1797 4.18872C21.528 4.47843 21.7868 4.89836 21.9561 5.44849C22.1253 5.99536 22.21 6.65291 22.21 7.42114ZM18.3184 7.42114C18.3184 8.08521 18.3688 8.63859 18.4697 9.0813C18.5706 9.52401 18.7334 9.85604 18.958 10.0774C19.1859 10.2955 19.4837 10.4045 19.8516 10.4045C20.2194 10.4045 20.5156 10.2955 20.7402 10.0774C20.9681 9.85929 21.1325 9.52889 21.2334 9.08618C21.3376 8.64347 21.3896 8.08846 21.3896 7.42114C21.3896 6.76685 21.3392 6.21997 21.2383 5.78052C21.1374 5.33781 20.9746 5.00578 20.75 4.78442C20.5254 4.55981 20.2259 4.44751 19.8516 4.44751C19.4772 4.44751 19.1777 4.55981 18.9531 4.78442C18.7285 5.00578 18.5658 5.33781 18.4648 5.78052C18.3672 6.21997 18.3184 6.76685 18.3184 7.42114Z" fill="white"/>
<defs>
<clipPath id="clip0_2024_93">
<rect width="14" height="14" fill="white" transform="translate(0 0.500244)"/>
</clipPath>
</defs>
</svg>
